<svg width="24" height="16" viewBox="0 0 24 16" fill="none" xmlns="http://www.w3.org/2000/svg">
<path fill-rule="evenodd" clip-rule="evenodd" d="M0 1C0 0.447715 0.447715 0 1 0H23C23.5523 0 24 0.447715 24 1C24 1.55228 23.5523 2 23 2H1C0.447716 2 0 1.55228 0 1ZM0 15C0 14.4477 0.447715 14 1 14H23C23.5523 14 24 14.4477 24 15C24 15.5523 23.5523 16 23 16H1C0.447716 16 0 15.5523 0 15ZM1 7C0.447715 7 0 7.44772 0 8C0 8.55228 0.447716 9 1 9H23C23.5523 9 24 8.55228 24 8C24 7.44772 23.5523 7 23 7H1Z" fill="#22252E"/>
</svg>
