<svg width="60" height="60" viewBox="0 0 60 60" fill="none" xmlns="http://www.w3.org/2000/svg">
<mask id="path-1-inside-1_0_79" fill="white">
<path fill-rule="evenodd" clip-rule="evenodd" d="M37.2193 23.1315L37.2203 23.1325C43.666 29.5758 47.809 38.3188 48.3143 48.0002H44.6513C43.6552 30.6371 29.7138 16.678 12.3696 15.6739V12.0332C22.0451 12.5405 30.7712 16.6765 37.2193 23.1315ZM11.6346 17.6406C28.4569 18.2931 42.0392 31.8904 42.6842 48.7352C42.7117 49.4252 43.2667 50.0002 43.9592 50.0002H49.1192C49.8091 50.0002 50.3691 49.4252 50.3466 48.7352C50.0166 38.2078 45.6017 28.683 38.6343 21.718C31.6643 14.7406 22.1569 10.3331 11.6346 10.0007C10.9421 9.97815 10.3696 10.5406 10.3696 11.2306V16.3656C10.3696 17.0556 10.9421 17.6131 11.6346 17.6406ZM11.6246 23.6105C18.402 23.928 24.5144 26.823 29.0119 31.3279C33.5218 35.8404 36.4043 41.9578 36.7293 48.7352C36.7618 49.4252 36.2018 50.0002 35.5118 50.0002H30.3444C29.6544 50.0002 29.0969 49.4252 29.0519 48.7402C28.7494 44.1928 26.8419 39.9428 23.6044 36.7154C20.3745 33.4754 16.142 31.5629 11.6246 31.2604C10.9371 31.2129 10.3696 30.6554 10.3696 29.9654V24.833C10.3696 24.1405 10.9371 23.5805 11.6246 23.6105ZM27.5965 32.741C23.6224 28.7603 18.2924 26.1442 12.3696 25.6621V29.3149C17.1391 29.7753 21.5916 31.8645 25.0186 35.3012C28.4584 38.7313 30.5404 43.2045 30.9983 48.0002H34.6777C34.1919 42.0701 31.5844 36.731 27.5973 32.7417L27.5965 32.741Z"/>
</mask>
<path d="M37.2203 23.1325L35.8061 24.5467L35.8063 24.547L37.2203 23.1325ZM37.2193 23.1315L35.8043 24.5449L35.8051 24.5457L37.2193 23.1315ZM48.3143 48.0002V50.0002H50.4214L50.3116 47.896L48.3143 48.0002ZM44.6513 48.0002L42.6545 48.1148L42.7627 50.0002H44.6513V48.0002ZM12.3696 15.6739H10.3696V17.5614L12.254 17.6705L12.3696 15.6739ZM12.3696 12.0332L12.4743 10.0359L10.3696 9.92556V12.0332H12.3696ZM42.6842 48.7352L40.6857 48.8118L40.6858 48.8149L42.6842 48.7352ZM11.6346 17.6406L11.5552 19.639L11.557 19.6391L11.6346 17.6406ZM50.3466 48.7352L48.3476 48.7979L48.3477 48.8004L50.3466 48.7352ZM38.6343 21.718L37.2193 23.1315L37.2203 23.1325L38.6343 21.718ZM11.6346 10.0007L11.5696 11.9996L11.5714 11.9997L11.6346 10.0007ZM29.0119 31.3279L27.5965 32.741L27.5973 32.7417L29.0119 31.3279ZM11.6246 23.6105L11.7181 21.6127L11.7117 21.6124L11.6246 23.6105ZM36.7293 48.7352L38.7271 48.6412L38.727 48.6394L36.7293 48.7352ZM29.0519 48.7402L31.0476 48.6091L31.0475 48.6075L29.0519 48.7402ZM23.6044 36.7154L22.188 38.1274L22.1924 38.1318L23.6044 36.7154ZM11.6246 31.2604L11.4867 33.2557L11.4909 33.256L11.6246 31.2604ZM12.3696 25.6621L12.5318 23.6687L10.3696 23.4926V25.6621H12.3696ZM27.5965 32.741L26.1811 34.154L26.184 34.1569L27.5965 32.741ZM12.3696 29.3149H10.3696V31.1311L12.1774 31.3056L12.3696 29.3149ZM25.0186 35.3012L23.6024 36.7134L23.6064 36.7173L25.0186 35.3012ZM30.9983 48.0002L29.0073 48.1903L29.1802 50.0002H30.9983V48.0002ZM34.6777 48.0002V50.0002H36.8482L36.671 47.8369L34.6777 48.0002ZM27.5973 32.7417L29.0119 31.3279L29.0098 31.3258L27.5973 32.7417ZM38.6345 21.7183L38.6335 21.7173L35.8051 24.5457L35.8061 24.5467L38.6345 21.7183ZM50.3116 47.896C49.7795 37.7016 45.4159 28.4972 38.6343 21.718L35.8063 24.547C41.916 30.6545 45.8385 38.936 46.317 48.1045L50.3116 47.896ZM44.6513 50.0002H48.3143V46.0002H44.6513V50.0002ZM12.254 17.6705C28.5827 18.6158 41.7165 31.7642 42.6545 48.1148L46.648 47.8857C45.5938 29.51 30.8448 14.7401 12.4852 13.6772L12.254 17.6705ZM10.3696 12.0332V15.6739H14.3696V12.0332H10.3696ZM38.6343 21.718C31.8505 14.927 22.6629 10.5702 12.4743 10.0359L12.2648 14.0304C21.4273 14.5109 29.692 18.426 35.8043 24.5449L38.6343 21.718ZM44.6828 48.6587C43.9978 30.7713 29.58 16.3351 11.7121 15.6421L11.557 19.6391C27.3337 20.251 40.0806 33.0095 40.6857 48.8118L44.6828 48.6587ZM43.9592 48.0002C44.423 48.0002 44.6708 48.3575 44.6826 48.6556L40.6858 48.8149C40.7527 50.493 42.1104 52.0002 43.9592 52.0002V48.0002ZM49.1192 48.0002H43.9592V52.0002H49.1192V48.0002ZM48.3477 48.8004C48.3331 48.3539 48.686 48.0002 49.1192 48.0002V52.0002C50.9322 52.0002 52.4051 50.4966 52.3456 48.67L48.3477 48.8004ZM37.2203 23.1325C43.8425 29.7523 48.0342 38.7995 48.3476 48.7979L52.3457 48.6726C51.9991 37.6162 47.3609 27.6136 40.0482 20.3036L37.2203 23.1325ZM11.5714 11.9997C21.5647 12.3154 30.5944 16.4995 37.2193 23.1315L40.0492 20.3046C32.7343 12.9817 22.7491 8.35086 11.6977 8.00165L11.5714 11.9997ZM12.3696 11.2306C12.3696 11.6559 12.0212 12.0143 11.5696 11.9996L11.6995 8.00171C9.86288 7.94203 8.36956 9.42539 8.36956 11.2306H12.3696ZM12.3696 16.3656V11.2306H8.36956V16.3656H12.3696ZM11.7139 15.6421C12.015 15.6541 12.3696 15.9043 12.3696 16.3656H8.36956C8.36956 18.2068 9.86908 19.572 11.5552 19.639L11.7139 15.6421ZM30.4273 29.9149C25.5931 25.0727 19.0153 21.9545 11.7181 21.6127L11.531 25.6083C17.7886 25.9015 23.4357 28.5732 27.5965 32.741L30.4273 29.9149ZM38.727 48.6394C38.3773 41.3462 35.2739 34.7643 30.4265 29.9141L27.5973 32.7417C31.7697 36.9165 34.4313 42.5695 34.7316 48.831L38.727 48.6394ZM35.5118 52.0002C37.3191 52.0002 38.8144 50.4955 38.7271 48.6412L34.7315 48.8293C34.7092 48.355 35.0845 48.0002 35.5118 48.0002V52.0002ZM30.3444 52.0002H35.5118V48.0002H30.3444V52.0002ZM27.0562 48.8713C27.1633 50.5014 28.4974 52.0002 30.3444 52.0002V48.0002C30.5724 48.0002 30.7548 48.0982 30.8647 48.2071C30.9695 48.3111 31.0371 48.4504 31.0476 48.6091L27.0562 48.8713ZM22.1924 38.1318C25.0815 41.0119 26.7856 44.8037 27.0563 48.873L31.0475 48.6075C30.7132 43.5819 28.6023 38.8738 25.0165 35.299L22.1924 38.1318ZM11.4909 33.256C15.5252 33.5261 19.3014 35.2319 22.188 38.1274L25.0208 35.3033C21.4475 31.7189 16.7588 29.5997 11.7582 29.2649L11.4909 33.256ZM8.36956 29.9654C8.36956 31.8012 9.84778 33.1424 11.4867 33.2557L11.7624 29.2652C12.0263 29.2834 12.3696 29.5097 12.3696 29.9654H8.36956ZM8.36956 24.833V29.9654H12.3696V24.833H8.36956ZM11.7117 21.6124C9.8455 21.531 8.36956 23.0432 8.36956 24.833H12.3696C12.3696 25.2378 12.0286 25.63 11.5374 25.6086L11.7117 21.6124ZM12.2073 27.6555C17.6373 28.0975 22.5285 30.4953 26.1811 34.154L29.0119 31.3279C24.7163 27.0252 18.9476 24.191 12.5318 23.6687L12.2073 27.6555ZM14.3696 29.3149V25.6621H10.3696V29.3149H14.3696ZM26.4348 33.8889C22.6788 30.1223 17.7932 27.8291 12.5617 27.3241L12.1774 31.3056C16.4851 31.7214 20.5045 33.6067 23.6024 36.7134L26.4348 33.8889ZM32.9892 47.8101C32.4876 42.5566 30.2046 37.6481 26.4309 33.885L23.6064 36.7173C26.7122 39.8145 28.5931 43.8523 29.0073 48.1903L32.9892 47.8101ZM34.6777 46.0002H30.9983V50.0002H34.6777V46.0002ZM26.1827 34.1556C29.8474 37.8223 32.2387 42.7231 32.6843 48.1635L36.671 47.8369C36.1451 41.4172 33.3213 35.6398 29.0119 31.3279L26.1827 34.1556ZM26.184 34.1569L26.1848 34.1577L29.0098 31.3258L29.009 31.325L26.184 34.1569Z" fill="#46B843" mask="url(#path-1-inside-1_0_79)"/>
<circle cx="14.7174" cy="44.7826" r="5.21739" stroke="#46B843" stroke-width="2"/>
</svg>
